<svg version="1.0" xmlns="http://www.w3.org/2000/svg"
 width="1022.000000pt" height="212.000000pt" viewBox="0 0 1022.000000 212.000000"
 preserveAspectRatio="xMidYMid meet">
<g transform="translate(0.000000,212.000000) scale(0.100000,-0.100000)" fill="#ffe852" stroke="none">
<path d="M877 1853 c-4 -3 -7 -15 -7 -25 0 -10 -4 -18 -9 -18 -12 0 -21 -36
-12 -47 23 -26 41 -235 26 -300 -5 -22 -2 -38 9 -55 9 -12 16 -39 16 -58 0
-20 5 -41 11 -47 8 -8 7 -24 -5 -59 -19 -57 -19 -49 -1 -68 12 -11 13 -21 5
-41 -6 -16 -7 -41 -1 -65 5 -21 7 -103 4 -182 -3 -111 -8 -147 -20 -160 -9
-10 -20 -15 -25 -12 -5 3 -12 -3 -15 -15 -3 -12 -12 -21 -19 -21 -16 0 -19
-36 -4 -45 6 -4 10 -55 10 -121 0 -107 -1 -114 -20 -114 -18 0 -20 -7 -20 -85
l0 -85 -40 0 c-33 0 -40 -3 -40 -20 0 -16 -7 -20 -30 -20 -23 0 -30 -4 -30
-20 0 -18 -7 -20 -75 -20 l-75 0 0 -40 0 -40 -255 0 -255 0 0 -35 0 -35 5110
0 5110 0 0 225 0 225 -40 0 c-29 0 -40 -4 -40 -15 0 -9 -9 -15 -25 -15 l-25 0
0 100 0 100 -65 0 -65 0 0 90 0 91 -62 -3 -63 -3 -3 -192 -2 -193 -50 0 -49 0
-3 38 -3 37 -118 0 -117 0 0 43 c0 35 -3 42 -20 42 -19 0 -20 7 -20 185 l0
185 -95 0 -95 0 -2 -162 -3 -163 -25 -1 c-63 -3 -60 0 -60 -64 0 -57 -1 -60
-25 -60 l-25 0 0 225 c0 216 -1 225 -19 225 -15 0 -21 8 -23 33 -3 30 -6 32
-45 35 -41 3 -42 2 -45 -30 -2 -25 -8 -34 -25 -36 l-23 -3 0 -260 c0 -252 -1
-259 -20 -259 -19 0 -20 7 -20 170 l0 170 -110 0 -110 0 0 -265 0 -265 -50 0
-50 0 0 155 0 155 -65 0 -65 0 0 80 0 80 -140 0 -140 0 0 -155 0 -155 -35 0
-35 0 0 316 c0 307 -1 316 -20 321 -16 4 -20 14 -20 49 0 32 -4 44 -15 44 -11
0 -15 -12 -15 -45 l0 -45 -80 0 -80 0 -2 -222 -3 -223 -67 0 -68 1 0 -38 c0
-37 -1 -38 -35 -38 -35 0 -35 0 -35 -45 l0 -45 -40 0 -40 0 0 -75 c0 -73 -1
-75 -25 -75 l-25 0 0 139 0 139 -75 4 -75 3 0 -117 0 -118 -25 0 -24 0 -3 153
-3 152 -92 3 -93 4 0 -141 0 -140 -52 -3 -53 -3 -3 -48 c-3 -46 -4 -47 -35
-47 l-32 0 -1 72 0 73 -52 3 -52 3 0 -50 0 -51 -45 0 -45 0 0 120 0 121 -56
-3 -57 -3 2 -103 2 -102 -25 0 c-18 0 -25 6 -28 23 -3 19 -10 22 -50 25 -46 3
-48 2 -48 -22 0 -19 -5 -26 -20 -26 -18 0 -20 7 -20 80 l0 80 -40 0 -40 0 0
-90 0 -90 -35 0 -35 0 0 100 0 100 -40 0 c-38 0 -40 -2 -40 -30 0 -25 -4 -30
-25 -30 -22 0 -25 4 -25 35 0 35 0 35 -45 35 l-45 0 0 -135 0 -135 -75 0 -75
0 0 70 0 70 -55 0 -55 0 0 36 0 35 -92 -3 -93 -3 -3 -72 -3 -73 -38 0 c-49 0
-53 8 -50 135 l2 100 -64 0 -64 0 -3 -77 -3 -78 -29 0 -30 0 0 100 0 100 -55
0 -54 0 -3 98 -3 97 -102 3 -103 3 0 -186 c0 -117 -4 -185 -10 -185 -6 0 -10
37 -10 90 l0 89 -82 3 -83 3 -3 42 c-3 38 -6 43 -28 43 l-24 0 0 265 0 265
-125 0 -125 0 0 -225 0 -225 -45 0 -45 0 0 -150 0 -150 -25 0 -25 0 0 229 c0
126 -3 231 -7 233 -5 2 -21 21 -38 43 -25 33 -31 52 -36 115 l-5 75 -2 -77
c-2 -66 -6 -81 -26 -104 -60 -67 -56 -44 -56 -319 l0 -255 -45 0 -46 0 1 178
2 177 -101 3 -101 3 0 -246 c0 -211 -2 -245 -15 -245 -8 0 -15 3 -15 8 -1 4
-2 54 -3 112 l-2 105 -38 0 -38 0 1 447 c0 439 0 447 -20 458 -13 7 -20 21
-20 40 0 19 -5 29 -12 28 -8 -2 -14 11 -16 35 -2 24 -8 37 -18 37 -8 0 -14 7
-14 15 0 8 -4 15 -10 15 -5 0 -10 11 -10 24 0 14 -4 28 -10 31 -5 3 -11 43
-12 88 -1 51 -3 63 -5 32 -8 -134 -15 -175 -29 -175 -8 0 -14 -7 -14 -15 0 -8
-7 -15 -15 -15 -10 0 -15 -10 -15 -34 0 -21 -6 -36 -15 -40 -9 -3 -15 -18 -15
-36 0 -20 -5 -30 -15 -30 -13 0 -15 -63 -15 -510 0 -503 0 -510 -20 -510 -20
0 -20 7 -20 401 0 392 0 401 -20 406 -16 4 -20 14 -20 48 0 29 -5 45 -15 49
-9 3 -15 18 -15 36 0 20 -5 30 -15 30 -10 0 -15 11 -15 35 0 24 -5 35 -15 35
-10 0 -15 17 -18 68 l-3 67 -2 -67 c-2 -53 -5 -68 -17 -68 -10 0 -15 -10 -15
-34 0 -21 -6 -36 -15 -40 -9 -3 -15 -18 -15 -36 0 -16 -4 -30 -10 -30 -5 0
-10 -20 -10 -45 0 -38 -3 -45 -20 -45 -20 0 -20 -7 -22 -407 -1 -225 -4 -360
-5 -301 l-4 106 -54 4 c-31 1 -60 2 -65 0 -6 -2 -10 -26 -10 -53 l0 -49 -85 0
-85 0 0 -29 c0 -28 -2 -30 -47 -33 l-48 -3 -3 -117 c-2 -96 -5 -118 -17 -118
-13 0 -15 34 -15 225 l0 225 -90 0 -90 0 0 -145 c0 -90 -4 -145 -10 -145 -6 0
-10 30 -10 70 l0 70 -105 0 -105 0 0 -70 0 -70 -50 0 c-32 0 -51 -4 -52 -12
-1 -7 -2 -35 -4 -63 -1 -27 -2 -56 -3 -62 -1 -7 -8 -13 -16 -13 -12 0 -15 19
-15 115 l0 115 -70 0 -70 0 0 -115 0 -115 -50 0 -49 0 -3 103 -3 102 -47 3
c-42 3 -48 1 -48 -17 0 -17 -8 -20 -52 -23 l-53 -3 -3 -52 c-3 -48 -5 -52 -30
-55 -25 -3 -27 -6 -30 -60 l-3 -58 -190 0 c-182 0 -191 1 -196 20 -4 13 -14
20 -30 20 -16 0 -27 7 -30 20 -4 16 -14 20 -44 20 l-39 0 0 84 c0 75 -2 84
-20 89 -18 5 -20 14 -20 115 0 63 4 113 10 117 18 11 11 40 -12 50 -45 20 -56
118 -28 250 5 22 5 68 1 103 -6 54 -5 64 9 72 10 5 20 23 23 40 4 16 16 43 28
60 12 16 24 43 25 59 3 25 -1 33 -25 46 -26 13 -30 13 -41 -1 -11 -13 -15 -13
-31 2 -11 10 -19 26 -19 36 0 10 -11 29 -25 42 -19 17 -27 38 -31 75 -5 50 -5
51 23 52 23 1 24 2 6 6 -25 5 -30 18 -10 26 6 3 2 6 -10 6 -26 1 -29 10 -10
31 6 8 3 7 -9 -3 -27 -22 -33 -22 -44 6 l-9 22 0 -22 c-1 -23 -18 -30 -37 -15
-5 4 -6 3 -1 -3 13 -16 8 -25 -16 -25 -20 0 -25 8 -35 51 -7 28 -12 64 -12 80
0 17 -4 39 -10 49 -7 13 -6 21 5 30 19 16 19 39 1 46 -8 3 -11 15 -8 30 4 23
-15 34 -31 17z"/>
</g>
</svg>
